<?xml version="1.0" encoding="utf-8"?><!-- Uploaded to: SVG Repo, www.svgrepo.com, Generator: SVG Repo Mixer Tools -->
<svg fill="#000000" width="800px" height="800px" viewBox="0 0 24 24" id="paper-clip-top-right" data-name="Flat Color" xmlns="http://www.w3.org/2000/svg" class="icon flat-color"><path id="primary" d="M8.49,22a5.06,5.06,0,0,1-3.58-8.63l6.74-6.74a3,3,0,0,1,4.28,4.29l-7,7a1,1,0,0,1-1.42,0,1,1,0,0,1,0-1.41l7.05-7a1,1,0,0,0-1.45-1.45L6.33,14.79a3.06,3.06,0,0,0,0,4.32,3.14,3.14,0,0,0,4.32,0l6.43-6.43A5.08,5.08,0,0,0,9.89,5.49L5.94,9.44A1,1,0,0,1,4.53,8l4-4a7.08,7.08,0,0,1,10,10l-6.43,6.43A5,5,0,0,1,8.49,22Z" style="fill: rgb(0, 0, 0);"></path></svg>